# xmcd CD database file
#
# Track frame offsets:
#	182
#	85300
#	122085
#	201920
#
# Disc length: 3193 seconds
#
# Revision: 0
# Processed by: cddbd v1.4PL0 Copyright (c) Steve Scherf et al.
# Submitted via: CDex 1.50beta10
#
DISCID=310c7704
DTITLE=Coltrane - Rarities 18
DYEAR=1900
DGENRE=Jazz
TTITLE0=Chim Chim Cheree
TTITLE1=Naima
TTITLE2=Bye bye Blackbird
TTITLE3=I want to talk about you
EXTD=
EXTT0=
EXTT1=
EXTT2=
EXTT3=
PLAYORDER=
